<?xml version="1.0" encoding="UTF-8" standalone="no"?>
<!-- Created with Inkscape (http://www.inkscape.org/) -->

<svg
   width="70.670807mm"
   height="10.257999mm"
   viewBox="0 0 70.670807 10.257999"
   version="1.1"
   id="svg212"
   inkscape:version="1.2.2 (b0a8486, 2022-12-01)"
   sodipodi:docname="UN-logotype-gradient.svg"
   xmlns:inkscape="http://www.inkscape.org/namespaces/inkscape"
   xmlns:sodipodi="http://sodipodi.sourceforge.net/DTD/sodipodi-0.dtd"
   xmlns="http://www.w3.org/2000/svg"
   xmlns:svg="http://www.w3.org/2000/svg">
  <sodipodi:namedview
     id="namedview214"
     pagecolor="#ffffff"
     bordercolor="#000000"
     borderopacity="0.25"
     inkscape:showpageshadow="2"
     inkscape:pageopacity="0.0"
     inkscape:pagecheckerboard="0"
     inkscape:deskcolor="#d1d1d1"
     inkscape:document-units="mm"
     showgrid="false"
     inkscape:zoom="3.4305004"
     inkscape:cx="118.78733"
     inkscape:cy="12.971868"
     inkscape:window-width="1390"
     inkscape:window-height="1027"
     inkscape:window-x="0"
     inkscape:window-y="653"
     inkscape:window-maximized="0"
     inkscape:current-layer="layer1" />
  <defs
     id="defs209">
    <clipPath
       clipPathUnits="userSpaceOnUse"
       id="clipPath22">
      <path
         d="M 0,169.561 H 496.407 V 0 H 0 Z"
         id="path20" />
    </clipPath>
  </defs>
  <g
     inkscape:label="Layer 1"
     inkscape:groupmode="layer"
     id="layer1"
     transform="translate(-6.5680001e-8,-0.44255862)">
    <g
       id="g10"
       transform="matrix(0.20512087,0,0,-0.20512086,21.764659,2.1955203)">
      <path
         d="m 0,0 -18.447,-40.771 h 4.682 l 4.8,10.699 h 22.034 l 4.743,-10.699 h 4.916 L 4.279,0 Z m 2.082,-5.32 9.194,-20.647 H -7.17 Z M 60.848,-0.289 46.102,-22.381 31.354,-0.289 h -4.625 v -40.482 h 4.452 v 32.733 l 14.747,-21.629 h 0.23 L 60.906,-7.98 v -32.791 h 4.569 v 40.482 z"
         style="fill:#00b3e3;fill-opacity:1;fill-rule:nonzero;stroke:none"
         id="path12" />
    </g>
    <path
       d="m 15.23,10.558323 h 0.936787 V 2.2548202 H 15.23 Z"
       style="fill:#ffffff;fill-opacity:1;fill-rule:nonzero;stroke:none;stroke-width:0.205122"
       id="path14-9" />
    <g
       id="g16"
       transform="matrix(0.20512087,0,0,-0.20512086,-20.297553,35.678708)"
       style="fill:#ffffff;fill-opacity:1">
      <g
         id="g18"
         clip-path="url(#clipPath22)"
         style="display:inline;fill:#ffffff;fill-opacity:1">
        <g
           id="g28"
           transform="translate(280.9226,74.4116)"
           style="display:inline;fill:#ffffff;fill-opacity:1">
          <path
             d="m 0,48.05424 h 4.568 v 18.216 h 23.364 v -18.216 H 32.5 v 40.481 h -4.568 v -17.985 H 4.568 v 17.985 H 0 Z m 59.2,-0.693 c 12.318,0 20.702,9.772 20.702,20.934 v 0.115 c 0,11.162 -8.268,20.819 -20.587,20.819 -12.317,0 -20.703,-9.773 -20.703,-20.934 v -0.116 c 0,-11.161 8.271,-20.818 20.588,-20.818 m 0.115,4.221 c -9.252,0 -15.961,7.518 -15.961,16.713 v 0.115 c 0,9.195 6.594,16.597 15.846,16.597 9.253,0 15.961,-7.517 15.961,-16.712 v -0.116 c 0,-9.194 -6.593,-16.597 -15.846,-16.597 m 26.729,-3.528 h 4.453 v 32.732 l 14.747,-21.628 h 0.231 l 14.747,21.686 v -32.79 h 4.569 v 40.481 h -4.627 l -14.747,-22.09 -14.746,22.09 h -4.627 z m 46.97,0 h 29.55 v 4.164 h -24.982 v 14.168 h 22.091 v 4.164 h -22.091 v 13.821 h 24.693 v 4.164 h -29.261 z"
             style="fill:#ffffff;fill-opacity:1;fill-rule:nonzero;stroke:none"
             id="path30" />
        </g>
        <g
           id="g32"
           transform="translate(280.948,54.6548)"
           style="display:inline;fill:#ffffff;fill-opacity:1" />
      </g>
    </g>
    <g
       id="g36"
       transform="matrix(0.24970599,0,0,-0.24970599,9.3310135,7.8453424)"
       style="display:inline">
      <path
         d="m 0,0 c -0.635,-0.638 -1.328,-1.233 -2.097,-1.77 -7.981,-5.571 -19.409,-3.699 -25.08,3.963 v 4.464 c 0.54,-1.233 1.198,-2.36 1.795,-3.222 5.014,-7.248 16.149,-8.239 22.916,-3.026 0.964,0.742 1.781,1.579 2.466,2.487 z m 0,-8.16 h -27.177 v 5.336 c 0.455,-0.43 0.919,-0.847 1.397,-1.236 0.271,-0.219 0.55,-0.429 0.832,-0.634 3.248,-2.186 7.158,-3.463 11.368,-3.463 5.217,0 9.975,1.963 13.58,5.187 z M -27.659,7.894 v 10e-4 c 0.042,-0.047 0.081,-0.182 0,-10e-4 m 5.023,10.276 c 2.805,-0.442 5.362,-2.379 5.482,-5.444 0.126,-0.924 0.006,-2.237 0.659,-3.203 0.712,-1.055 1.953,-1.673 3.183,-1.879 2.083,-0.348 4.234,0.7 4.899,2.773 0.801,2.494 -0.114,5.207 -1.214,7.439 -1.302,2.647 -3.185,4.841 -5.753,6.329 -0.074,0.043 -0.149,0.081 -0.224,0.123 l 1.708,1.49 c 2.281,-1.413 4.257,-3.349 5.688,-5.797 2.214,-3.79 3.916,-10.36 -0.354,-13.473 -3.671,-2.678 -10.426,-0.691 -10.623,4.347 -0.079,0.577 -0.025,1.692 -0.272,2.426 -0.337,1.001 -1.171,1.757 -2.107,2.198 -1.181,0.558 -2.587,0.698 -3.811,0.28 z m 4.476,3.905 c 0.356,-0.176 0.709,-0.365 1.051,-0.577 2.788,-1.736 4.779,-4.736 5.264,-7.993 0.143,-0.961 0.541,-3.194 -1.01,-3.163 -0.499,0.01 -0.936,0.311 -1.055,0.804 -0.089,0.362 -0.052,0.791 -0.074,1.254 -0.1,2.131 -0.922,3.592 -1.12,3.948 -0.222,0.4 -0.458,0.783 -0.741,1.143 -0.566,0.719 -1.229,1.37 -1.974,1.902 -0.646,0.461 -1.357,0.842 -2.104,1.144 z m 15.266,-7.367 c -0.158,0.897 -0.384,1.766 -0.668,2.606 l 2.656,-2.317 c 0.034,-0.22 0.066,-0.44 0.093,-0.662 0.444,-3.84 -0.447,-7.805 -3.271,-10.567 -4.329,-4.236 -11.348,-4.747 -16.231,-1.137 -2.53,1.869 -4.28,4.91 -4.557,8.05 -0.083,0.934 -0.2,2.583 1.214,2.395 0.508,-0.067 0.804,-0.387 0.921,-0.865 0.084,-0.344 0.013,-0.773 0.029,-1.129 0.003,-0.065 0.032,-0.449 -0.003,-0.091 -0.016,-0.61 0.121,-2.025 1.471,-4.258 0.281,-0.465 0.629,-0.875 1.001,-1.271 0.81,-0.865 1.751,-1.568 2.82,-2.082 2.461,-1.181 5.387,-1.472 7.985,-0.579 5.101,1.751 7.446,6.772 6.54,11.907 M 9.694,9.938 -12.388,29.211 c -0.664,0.58 -1.737,0.58 -2.401,0 L -36.87,9.938 c -0.664,-0.58 -0.664,-1.517 0,-2.096 0.664,-0.58 1.737,-0.58 2.401,0 l 3.895,3.399 V -9.643 c 0,-0.819 0.762,-1.482 1.699,-1.482 H 1.699 c 0.939,0 1.698,0.663 1.698,1.482 V 11.241 L 7.292,7.842 C 7.623,7.553 8.059,7.407 8.493,7.407 c 0.435,0 0.869,0.146 1.201,0.435 0.664,0.579 0.664,1.516 0,2.096"
         style="fill:#00b3e3;fill-opacity:1;fill-rule:nonzero;stroke:none"
         id="path38" />
    </g>
  </g>
</svg>
