<?xml version="1.0" encoding="UTF-8" standalone="no"?>
<!-- Created with Inkscape (http://www.inkscape.org/) -->

<svg
   width="50.110001mm"
   height="42.956223mm"
   viewBox="0 0 50.110001 42.956222"
   version="1.1"
   id="svg811"
   inkscape:version="1.2.2 (b0a8486, 2022-12-01)"
   sodipodi:docname="iamhomelogo.svg"
   xmlns:inkscape="http://www.inkscape.org/namespaces/inkscape"
   xmlns:sodipodi="http://sodipodi.sourceforge.net/DTD/sodipodi-0.dtd"
   xmlns="http://www.w3.org/2000/svg"
   xmlns:svg="http://www.w3.org/2000/svg">
  <sodipodi:namedview
     id="namedview813"
     pagecolor="#ffffff"
     bordercolor="#000000"
     borderopacity="0.25"
     inkscape:showpageshadow="2"
     inkscape:pageopacity="0.0"
     inkscape:pagecheckerboard="0"
     inkscape:deskcolor="#d1d1d1"
     inkscape:document-units="mm"
     showgrid="false"
     inkscape:zoom="0.78127806"
     inkscape:cx="119.6757"
     inkscape:cy="344.94761"
     inkscape:window-width="1390"
     inkscape:window-height="1027"
     inkscape:window-x="0"
     inkscape:window-y="653"
     inkscape:window-maximized="0"
     inkscape:current-layer="layer1" />
  <defs
     id="defs808" />
  <g
     inkscape:label="Layer 1"
     inkscape:groupmode="layer"
     id="layer1"
     transform="translate(-67.104043,-48.759352)">
    <g
       id="g36"
       transform="matrix(0.36989675,0,0,-0.36989675,104.46548,78.152752)">
      <path
         d="m 0,0 c -1.546,-1.553 -3.233,-3.004 -5.102,-4.308 -19.423,-13.556 -47.231,-9.001 -61.031,9.644 v 10.862 c 1.315,-3.001 2.916,-5.743 4.367,-7.841 C -49.565,-9.278 -22.469,-11.69 -6.001,0.994 -3.656,2.801 -1.667,4.836 0,7.047 Z m 0,-19.857 h -66.133 v 12.984 c 1.108,-1.047 2.237,-2.063 3.399,-3.006 0.659,-0.536 1.337,-1.048 2.024,-1.545 7.902,-5.32 17.42,-8.427 27.663,-8.427 12.696,0 24.274,4.777 33.047,12.622 z m -67.307,39.064 c -0.001,10e-4 -0.001,0.002 -0.001,0.003 0.104,-0.115 0.198,-0.441 0.001,-0.003 m 12.224,25.006 c 6.826,-1.076 13.048,-5.788 13.339,-13.248 0.306,-2.247 0.015,-5.441 1.603,-7.792 1.735,-2.568 4.753,-4.072 7.748,-4.573 5.068,-0.848 10.301,1.703 11.92,6.748 1.95,6.07 -0.279,12.672 -2.953,18.103 -3.17,6.439 -7.751,11.778 -14.001,15.401 -0.178,0.103 -0.364,0.195 -0.545,0.296 l 4.158,3.629 c 5.548,-3.44 10.359,-8.15 13.839,-14.108 5.387,-9.222 9.53,-25.21 -0.858,-32.785 -8.938,-6.517 -25.375,-1.682 -25.853,10.579 -0.191,1.404 -0.06,4.118 -0.661,5.901 -0.82,2.437 -2.85,4.276 -5.129,5.352 -2.873,1.356 -6.294,1.697 -9.272,0.68 z m 10.89,9.506 c 0.87,-0.429 1.726,-0.89 2.558,-1.407 6.784,-4.224 11.63,-11.525 12.811,-19.45 0.348,-2.339 1.317,-7.774 -2.459,-7.697 -1.214,0.024 -2.277,0.758 -2.568,1.954 -0.214,0.882 -0.126,1.926 -0.179,3.055 -0.243,5.184 -2.244,8.74 -2.724,9.605 -0.54,0.975 -1.113,1.908 -1.805,2.784 -1.377,1.749 -2.991,3.333 -4.803,4.626 -1.571,1.122 -3.301,2.051 -5.12,2.786 z m 37.152,-17.93 c -0.386,2.186 -0.937,4.298 -1.626,6.344 l 6.461,-5.639 c 0.083,-0.536 0.162,-1.073 0.227,-1.613 1.082,-9.343 -1.086,-18.99 -7.959,-25.714 -10.535,-10.306 -27.615,-11.55 -39.5,-2.767 -6.153,4.548 -10.413,11.95 -11.086,19.59 -0.202,2.275 -0.489,6.285 2.953,5.828 1.235,-0.164 1.959,-0.942 2.242,-2.105 0.203,-0.837 0.032,-1.881 0.07,-2.748 0.007,-0.159 0.079,-1.092 -0.006,-0.22 -0.04,-1.484 0.293,-4.929 3.577,-10.361 0.686,-1.134 1.532,-2.128 2.436,-3.094 1.974,-2.104 4.261,-3.816 6.864,-5.065 5.989,-2.875 13.109,-3.582 19.431,-1.412 12.414,4.263 18.117,16.482 15.916,28.976 m 30.63,-11.607 -53.734,46.9 c -1.616,1.41 -4.227,1.41 -5.843,0 l -53.734,-46.9 c -1.616,-1.411 -1.616,-3.691 0,-5.102 1.617,-1.41 4.229,-1.41 5.844,0 l 9.479,8.273 v -50.818 c 0,-1.995 1.851,-3.608 4.132,-3.608 H 4.134 c 2.285,0 4.133,1.613 4.133,3.608 v 50.818 l 9.477,-8.273 c 0.807,-0.703 1.864,-1.057 2.923,-1.057 1.058,0 2.116,0.354 2.922,1.057 1.616,1.411 1.616,3.691 0,5.102"
         style="fill:#00b3e3;fill-opacity:1;fill-rule:nonzero;stroke:none"
         id="path38" />
    </g>
  </g>
</svg>
