<?xml version="1.0" encoding="UTF-8" standalone="no"?>
<!-- Created with Inkscape (http://www.inkscape.org/) -->

<svg
   version="1.1"
   id="svg2"
   xml:space="preserve"
   width="97.125244"
   height="83.261002"
   viewBox="0 0 97.125245 83.261002"
   sodipodi:docname="IAMHome-Logo.svg"
   inkscape:version="1.2.2 (b0a8486, 2022-12-01)"
   xmlns:inkscape="http://www.inkscape.org/namespaces/inkscape"
   xmlns:sodipodi="http://sodipodi.sourceforge.net/DTD/sodipodi-0.dtd"
   xmlns="http://www.w3.org/2000/svg"
   xmlns:svg="http://www.w3.org/2000/svg"><defs
     id="defs6"><clipPath
       clipPathUnits="userSpaceOnUse"
       id="clipPath22"><path
         d="M 0,169.561 H 496.407 V 0 H 0 Z"
         id="path20" /></clipPath></defs><sodipodi:namedview
     id="namedview4"
     pagecolor="#ffffff"
     bordercolor="#666666"
     borderopacity="1.0"
     inkscape:pageshadow="2"
     inkscape:pageopacity="0.0"
     inkscape:pagecheckerboard="0"
     inkscape:showpageshadow="2"
     inkscape:deskcolor="#d1d1d1"
     showgrid="false"
     inkscape:zoom="2.3926801"
     inkscape:cx="261.6313"
     inkscape:cy="46.182521"
     inkscape:window-width="2163"
     inkscape:window-height="1027"
     inkscape:window-x="0"
     inkscape:window-y="25"
     inkscape:window-maximized="0"
     inkscape:current-layer="g8" /><g
     id="g8"
     inkscape:groupmode="layer"
     inkscape:label="eeba92b74a3fde668ff0562833e7083b"
     transform="matrix(1.3333333,0,0,-1.3333333,-70.561026,153.57669)"><g
       id="g16"
       transform="matrix(1.5316218,0,0,1.5316218,-28.13388,-61.233658)"><g
         id="g18"
         clip-path="url(#clipPath22)"><g
           id="g36"
           transform="translate(90.2888,85.5366)"><path
             d="m 0,0 c -0.635,-0.638 -1.328,-1.233 -2.097,-1.77 -7.981,-5.571 -19.409,-3.699 -25.08,3.963 v 4.464 c 0.54,-1.233 1.198,-2.36 1.795,-3.222 5.014,-7.248 16.149,-8.239 22.916,-3.026 0.964,0.742 1.781,1.579 2.466,2.487 z m 0,-8.16 h -27.177 v 5.336 c 0.455,-0.43 0.919,-0.847 1.397,-1.236 0.271,-0.219 0.55,-0.429 0.832,-0.634 3.248,-2.186 7.158,-3.463 11.368,-3.463 5.217,0 9.975,1.963 13.58,5.187 z M -27.659,7.894 v 10e-4 c 0.042,-0.047 0.081,-0.182 0,-10e-4 m 5.023,10.276 c 2.805,-0.442 5.362,-2.379 5.482,-5.444 0.126,-0.924 0.006,-2.237 0.659,-3.203 0.712,-1.055 1.953,-1.673 3.183,-1.879 2.083,-0.348 4.234,0.7 4.899,2.773 0.801,2.494 -0.114,5.207 -1.214,7.439 -1.302,2.647 -3.185,4.841 -5.753,6.329 -0.074,0.043 -0.149,0.081 -0.224,0.123 l 1.708,1.49 c 2.281,-1.413 4.257,-3.349 5.688,-5.797 2.214,-3.79 3.916,-10.36 -0.354,-13.473 -3.671,-2.678 -10.426,-0.691 -10.623,4.347 -0.079,0.577 -0.025,1.692 -0.272,2.426 -0.337,1.001 -1.171,1.757 -2.107,2.198 -1.181,0.558 -2.587,0.698 -3.811,0.28 z m 4.476,3.905 c 0.356,-0.176 0.709,-0.365 1.051,-0.577 2.788,-1.736 4.779,-4.736 5.264,-7.993 0.143,-0.961 0.541,-3.194 -1.01,-3.163 -0.499,0.01 -0.936,0.311 -1.055,0.804 -0.089,0.362 -0.052,0.791 -0.074,1.254 -0.1,2.131 -0.922,3.592 -1.12,3.948 -0.222,0.4 -0.458,0.783 -0.741,1.143 -0.566,0.719 -1.229,1.37 -1.974,1.902 -0.646,0.461 -1.357,0.842 -2.104,1.144 z m 15.266,-7.367 c -0.158,0.897 -0.384,1.766 -0.668,2.606 l 2.656,-2.317 c 0.034,-0.22 0.066,-0.44 0.093,-0.662 0.444,-3.84 -0.447,-7.805 -3.271,-10.567 -4.329,-4.236 -11.348,-4.747 -16.231,-1.137 -2.53,1.869 -4.28,4.91 -4.557,8.05 -0.083,0.934 -0.2,2.583 1.214,2.395 0.508,-0.067 0.804,-0.387 0.921,-0.865 0.084,-0.344 0.013,-0.773 0.029,-1.129 0.003,-0.065 0.032,-0.449 -0.003,-0.091 -0.016,-0.61 0.121,-2.025 1.471,-4.258 0.281,-0.465 0.629,-0.875 1.001,-1.271 0.81,-0.865 1.751,-1.568 2.82,-2.082 2.461,-1.181 5.387,-1.472 7.985,-0.579 5.101,1.751 7.446,6.772 6.54,11.907 M 9.694,9.938 -12.388,29.211 c -0.664,0.58 -1.737,0.58 -2.401,0 L -36.87,9.938 c -0.664,-0.58 -0.664,-1.517 0,-2.096 0.664,-0.58 1.737,-0.58 2.401,0 l 3.895,3.399 V -9.643 c 0,-0.819 0.762,-1.482 1.699,-1.482 H 1.699 c 0.939,0 1.698,0.663 1.698,1.482 V 11.241 L 7.292,7.842 C 7.623,7.553 8.059,7.407 8.493,7.407 c 0.435,0 0.869,0.146 1.201,0.435 0.664,0.579 0.664,1.516 0,2.096"
             style="fill:#00b3e3;fill-opacity:1;fill-rule:nonzero;stroke:none"
             id="path38" /></g></g></g></g></svg>
